/* XPM */
static char *kapman[] = {
/* columns rows colors chars-per-pixel */
"32 32 256 2 ",
"   c #323232",
".  c #363C3E",
"X  c #3F3F3E",
"o  c #775E1F",
"O  c #4D4839",
"+  c #4B4639",
"@  c #766232",
"#  c #3E4444",
"$  c #434949",
"%  c #4C4F4F",
"&  c #454845",
"*  c #4E5151",
"=  c #5A5D56",
"-  c #555856",
";  c #5E615C",
":  c #696640",
">  c #6A6D69",
",  c #696B65",
"<  c #71746F",
"1  c #7C7D7A",
"2  c #945B00",
"3  c #995F00",
"4  c #94520C",
"5  c #904B17",
"6  c #A65B14",
"7  c #9D6301",
"8  c #996D11",
"9  c #A26700",
"0  c #A46900",
"q  c #A96C03",
"w  c #AE7203",
"e  c #AE750A",
"r  c #B37507",
"t  c #B2730A",
"y  c #B37A0D",
"u  c #BA790C",
"i  c #AF6713",
"p  c #AA641C",
"a  c #AC6B19",
"s  c #B96C1D",
"d  c #A67614",
"f  c #B97710",
"g  c #B57916",
"h  c #98482C",
"j  c #B65B2B",
"k  c #A54F37",
"l  c #BD6F29",
"z  c #B66A2A",
"x  c #BF7D2A",
"c  c #B57C2B",
"v  c #B7633F",
"b  c #BC7034",
"n  c #C17D13",
"m  c #C07E18",
"M  c #C67E23",
"N  c #C37433",
"B  c #AE5941",
"V  c #8B7746",
"C  c #987B46",
"Z  c #BD6449",
"A  c #B97B42",
"S  c #C56A4F",
"D  c #D26445",
"F  c #C57540",
"G  c #C96E51",
"H  c #CE7254",
"J  c #D87756",
"K  c #E47E5C",
"L  c #7E807B",
"P  c #BB8716",
"I  c #BF8A1A",
"U  c #BC8814",
"Y  c #9B913F",
"T  c #C49B0D",
"R  c #C18011",
"E  c #C88517",
"W  c #C6821E",
"Q  c #CB881D",
"!  c #CF9E15",
"~  c #D4931A",
"^  c #DA991B",
"/  c #E09F1F",
"(  c #DBA916",
")  c #C78226",
"_  c #C38B21",
"`  c #CD8A22",
"'  c #C6872F",
"]  c #CD882D",
"[  c #C6962A",
"{  c #C79427",
"}  c #D49125",
"|  c #DA9724",
" . c #DA9926",
".. c #D89529",
"X. c #DC9A2D",
"o. c #D4922A",
"O. c #C48031",
"+. c #CC8E31",
"@. c #D09035",
"#. c #DD9C32",
"$. c #D19A3A",
"%. c #E19E25",
"&. c #D8A524",
"*. c #DFA13D",
"=. c #E4A42B",
"-. c #EBA92A",
";. c #EFB02B",
":. c #F3B42D",
">. c #F5BC2F",
",. c #F9BC2F",
"<. c #F7BD23",
"1. c #E3A235",
"2. c #EAAA33",
"3. c #E3A33A",
"4. c #EAA33B",
"5. c #E7A93D",
"6. c #EBAD3D",
"7. c #E7B63F",
"8. c #E8B937",
"9. c #F5B939",
"0. c #F6C02B",
"q. c #FDC12D",
"w. c #FFC334",
"e. c #FDC53C",
"r. c #FCC93F",
"t. c #F3C137",
"y. c #9D8843",
"u. c #AE8944",
"i. c #B59851",
"p. c #BAA544",
"a. c #938E76",
"s. c #A29170",
"d. c #A99E77",
"f. c #ABA37A",
"g. c #CA8F40",
"h. c #C98D47",
"j. c #C69445",
"k. c #D09044",
"l. c #CE8054",
"z. c #DF875C",
"x. c #D09B55",
"c. c #E09B4F",
"v. c #CFA342",
"b. c #D7A94D",
"n. c #DCB448",
"m. c #C4A254",
"M. c #D1A25D",
"N. c #D6B55C",
"B. c #E6A940",
"V. c #EAAF48",
"C. c #F0AB44",
"Z. c #EDB144",
"A. c #EDB54C",
"S. c #E4BC4A",
"D. c #E7BA47",
"F. c #F1B643",
"G. c #F5BB45",
"H. c #F3BB4B",
"J. c #F3B148",
"K. c #E3B352",
"L. c #F2BC52",
"P. c #C89E67",
"I. c #CC946C",
"U. c #DA9366",
"Y. c #D79E7F",
"T. c #E78D68",
"R. c #E58763",
"E. c #E89867",
"W. c #EE976D",
"Q. c #F39967",
"!. c #F79D73",
"~. c #F5BA6A",
"^. c #E4A779",
"/. c #FFA670",
"(. c #FFA978",
"). c #F6A675",
"_. c #FCB37B",
"`. c #FBB87E",
"'. c #E7C24D",
"]. c #F6C740",
"[. c #FCC347",
"{. c #FFC844",
"}. c #F6C04D",
"|. c #FEC94D",
" X c #F9C44E",
".X c #F5C253",
"XX c #F9C756",
"oX c #FDCC55",
"OX c #F5C55A",
"+X c #FACB5B",
"@X c #F3CB5E",
"#X c #FFD35C",
"$X c #DFC161",
"%X c #F5C369",
"&X c #F6D764",
"*X c #FDD462",
"=X c #FEDA67",
"-X c #F6D66B",
";X c #FEDB6B",
":X c #FDDE73",
">X c #FCDD7D",
",X c #FFE06F",
"<X c #FEE274",
"1X c #FFE479",
"2X c #FFE97E",
"3X c #858782",
"4X c #8D908A",
"5X c #909188",
"6X c #A59E89",
"7X c #9EA09B",
"8X c #ACA382",
"9X c #A6A79C",
"0X c #B0AE9E",
"qX c #A0A0A0",
"wX c #ABADA7",
"eX c #ADB0A9",
"rX c #C3BD9C",
"tX c #EBAE88",
"yX c #F6B784",
"uX c #F6B689",
"iX c #CBC29C",
"pX c #D5CE9F",
"aX c #FCDD82",
"sX c #FEE681",
"dX c #FFEC83",
"fX c #FFEC8C",
"gX c #FFF088",
"hX c #FFE793",
"jX c #FEE896",
"kX c #FFEB9F",
"lX c #FFF392",
"zX c #FFF39C",
"xX c #FFF898",
"cX c #D5CEA1",
"vX c #DFD9A8",
"bX c #DCD9A7",
"nX c #E3E1AE",
"mX c #FFEEAB",
"MX c #FFEBA3",
"NX c #FFF4A3",
"BX c #FFF6AB",
"VX c #FFFCA9",
"CX c #EAE9B6",
"ZX c #FFF4B2",
"AX c #FFFAB0",
"SX c #FFF4BA",
"DX c #FFFABC",
"FX c #E4E5C0",
"GX c #F2F2C3",
"HX c #FFF7C4",
"JX c #FFF9C3",
"KX c #F3F3CE",
"LX c #F8F7D3",
"PX c #F7F7E4",
"IX c #FDFCF0",
"UX c None",
/* pixels */
"UXUXUXUXUXUXUXUXUXUXUXUXUXUXUXUXUXUXUXUXUXUXUXUXUXUXUXUXUXUXUXUX",
"UXUXUXUXUXUXUXUXUXUXUXUXUXUXUXUXUXUXUXUXUXUXUXUXUXUXUXUXUXUXUXUX",
"UXUXUXUXUXUXUXUXUXUXUXUXUXUXUXUXUXUXUXUXUXUXUXUXUXUXUXUXUXUXUXUX",
"UXUXUXUXUXUXUXUXUXUXUXUXUXUXUXUXUXUXUXUXUXUXUXUXUXUXUXUXUXUXUXUX",
"UXUXUXUXUXUXUXUXUXUXUXUX8.r.r.r.r.e.;.&.UXUXUXUXUXUXUXUXUXUXUXUX",
"UXUXUXUXUXUXUXUXUXUX'.;X=X#XoXoX|.{.e.w.q.<.UXUXUXUXUXUXUXUXUXUX",
"UXUXUXUXUXUXUXUXUX:XgX2X;X#X#XoX|.{.e.e.q.q.<.! UXUXUXUXUXUXUXUX",
"UXUXUXUXUXUXUXUXfXNXgX1X=X*X#XoX|.[.e.,.,.,.0.0.( UXUXUXUXUXUXUX",
"UXUXUXUXUXUXUXfXZXNXgX1X;X*X*XoX|.[.9.9.:.:.>.t.: T UXUXUXUXUXUX",
"UXUXUXUXUXUX&XDXAXxXdX<X;X=X*XoX XG.G.:.:.;.J.H.y.Y UXUXUXUXUXUX",
"UXUXUXUXUXUXZXJXVXlX2X,X$XN.+XXXH.G.9.2.-.C.%XaX%Xp.( UXUXUXUXUX",
"UXUXUXUXUX-XJXDXxXgX1X;XO X m.XXH.F.6.2.=.4.~.>Xx.'.7.UXUXUXUXUX",
"UXUXUXUXUXjXJXBXlX2X:X=X+ qX6XL.J.6.2.=. ./ 4.c.c S.S.UXUXUXUXUX",
"UXUXUXUXUXmXSXzXdX<X=X*Xi.1 s.A.Z.5.1.X.| ^ ^ 4 g n.P.UXUXUXUXUX",
"UXUXUXUXUXMXBXfX1X=X*XOXOXK.A.V.5.1.X. .~ ~ ~ { h.I.tXb UXUXUXUX",
"UXUXUXUXD.kXzXsX;X*XOXOXL.A.V.B.3.#...` ) ) N J I.^.tXh.UXUXUXUX",
"UXUXUXUXUXjXhX:X*X+X.XL.A.V.3.] O.b Z Z G J z.E.).yXyXj.UXUXUXUX",
"UXUXUXUXUX>XSX:XXX}.+.5 h k B S S H J z.T.W.).).`.`.M.[ UXUXUXUX",
"UXUXUXUXUX-XBX;XH.H.Z.W 6 j D J K R.W.!.(.(./.Q.k.j.v.U UXUXUXUX",
"UXUXUXUXUX7.@XA.F.Z.5.3. .n i s l N N N z p p a _ [ [ UXUXUXUXUX",
"UXUXUXUXUXUX' x ] #.1.#.X.o.` R u u t q q q w y I [ U UXUXUXUXUX",
"UXUXUXUXUXUX_ X.X.) X.X.} ` W g f t q 9 9 9 q t P P UXUXUXUXUXUX",
"UXUXUXUXUXUXUX=.b.$. .} Q Q n f t q 9 9 3 9 9 e y e UXUXUXUXUXUX",
"UXUXUXUXUXUXKXGXCXpXd.u.E n f r q 9 9 3 3 3 9 q d 4XUXUXUXUXUXUX",
"UXUXUXUXUXPXIXLXGXbXiXa.C u r q 0 7 3 2 2 2 3 8 = , 9XUXUXUXUXUX",
"UXUXUXUXFXKXKXGXnXcXrX9X> e w q 0 7 2 2 2 7 @ ; ; ; > wXUXUXUXUX",
"UXUXUXUXvXnXnXvXpXrX0XqX1 V w 0 9 9 0 0 o = ; ; ; ; ; eXUXUXUXUX",
"UXUXUXUXf.f.8X8X6X5X3XL < > UXUXUXUXUXUX. . # # # # # # UXUXUXUX",
"UXUXUXUX= & & & # # # # $ - UXUXUXUX  UX# # # # # $ * > UXUXUXUX",
"UXUXUXUXUXUX* * * * * * UXUXUXUXUX    UXUXUXUXUXUXUXUXUXUXUXUXUX",
"UXUXUXUXUXUXUXUXUXUXUXUXUXUXUXUXUXUXUXUXUXUXUXUXUXUXUXUXUXUXUXUX",
"UXUXUXUXUXUXUXUXUXUXUXUXUXUXUXUXUXUXUXUXUXUXUXUXUXUXUXUXUXUXUXUX"
};
